# xmcd CD database file
# 
# Track frame offsets:
# 	150
# 	13628
# 	29970
# 	55911
# 	73022
# 	91725
# 	112531
# 	128451
# 	148578
# 	181230
# 	207160
# 	222305
# 
# Disc length: 3196 seconds
# 
# Submitted via: Nero 6, 3, 0, 2
# 
# Revision: 0
# Processed by: cddbd v1.5PL3 Copyright (c) Steve Scherf et al.
#
DISCID=a30c7a0c
DTITLE=Welcome Wagon - Goin' up the Country
DYEAR=1900
DGENRE=
TTITLE0=How Long Blues
TTITLE1=Southbound Train
TTITLE2=Falling Fast
TTITLE3=Sitting on top of the world
TTITLE4=Walk On
TTITLE5=I can't be satisfied
TTITLE6=Ax Sweet Mama
TTITLE7=Silvertown
TTITLE8=Goin' up the Country
TTITLE9=Big Bill's Blues
TTITLE10=Police Dog Blues
TTITLE11=One Meat Ball
EXTD=Dave Steel's Band
EXTT0=Dave Steel's Band
EXTT1=Dave Steel's Band
EXTT2=Dave Steel's Band
EXTT3=Dave Steel's Band
EXTT4=Dave Steel's Band
EXTT5=Dave Steel's Band
EXTT6=Dave Steel's Band
EXTT7=Dave Steel's Band
EXTT8=Dave Steel's Band
EXTT9=Dave Steel's Band
EXTT10=Dave Steel's Band
EXTT11=Dave Steel's Band
PLAYORDER=
